<svg xmlns="http://www.w3.org/2000/svg" xmlns:svg="http://www.w3.org/2000/svg" xmlns:xlink="http://www.w3.org/1999/xlink" id="svg5091" width="256" height="256" version="1.1" viewBox="0 0 256 256"><defs id="defs5093"><clipPath id="clipPath6742" clipPathUnits="userSpaceOnUse"><circle id="circle6744" cx="128" cy="924.362" r="127" fill="none" fill-opacity="1" stroke="#000" stroke-dasharray="none" stroke-linecap="round" stroke-linejoin="round" stroke-miterlimit="4" stroke-opacity="1" stroke-width="4" opacity="1"/></clipPath></defs><metadata id="metadata5096"/><g id="layer1" transform="translate(0,-796.36216)"><image id="image6739" width="1177" height="773" x="-321.907" y="611.304" clip-path="url(#clipPath6742)" preserveAspectRatio="none" xlink:href="gray_contrast.png"/><path id="path4-7-9" fill="#fff" fill-opacity="1" fill-rule="nonzero" stroke="none" stroke-dasharray="none" stroke-dashoffset="0" stroke-linecap="round" stroke-linejoin="round" stroke-miterlimit="4" stroke-opacity="1" stroke-width=".895" d="m 130.13328,838.10967 c -27.44553,0 -51.815925,12.95049 -67.586069,33.00107 a 1.3055866,1.3055866 0 0 0 0.324771,1.90872 l 10.62049,6.73467 a 1.3055866,1.3055866 0 0 0 1.709314,-0.27917 c 13.013422,-15.92761 32.888914,-26.06695 55.056834,-26.06695 39.17981,0 70.95341,31.77357 70.95341,70.9534 0,39.17979 -31.77355,70.95339 -70.95341,70.95339 -22.1036,0 -41.9161,-10.09246 -54.931472,-25.94159 a 1.3055866,1.3055866 0 0 0 -1.70362,-0.27334 l -10.620512,6.73466 a 1.3055866,1.3055866 0 0 0 -0.324771,1.90875 c 15.773423,19.96693 40.075355,32.86992 67.455035,32.86992 47.52717,0 86.12067,-38.65516 86.12067,-86.25165 0,-47.59652 -38.5935,-86.25173 -86.12067,-86.25173 z M 41.032709,869.61224 A 1.3055866,1.3055866 0 0 0 39.81341,870.917 l -0.06846,105.87459 a 1.3055866,1.3055866 0 0 0 1.96571,1.12245 l 89.733104,-52.95438 a 1.3055866,1.3055866 0 0 0 0,-2.25059 l -89.658946,-52.9145 a 1.3055866,1.3055866 0 0 0 -0.752105,-0.18235 z m 89.100571,1.64664 c -15.63705,0 -29.68857,6.76748 -39.428049,17.5204 a 1.3055866,1.3055866 0 0 0 0.273478,1.98851 l 11.007941,6.86003 a 1.3055866,1.3055866 0 0 0 1.61247,-0.17681 c 6.84565,-6.76108 16.18768,-10.8883 26.53416,-10.8883 20.94761,0 37.92956,17.08609 37.92956,38.18596 0,21.09984 -16.98195,38.19167 -37.92956,38.19167 -10.53964,2e-5 -20.0336,-4.27932 -26.91023,-11.26436 a 1.3055866,1.3055866 0 0 0 -1.62952,-0.18789 l -10.620515,6.73467 a 1.3055866,1.3055866 0 0 0 -0.267806,1.9771 c 9.739481,10.75292 23.791021,17.52612 39.428051,17.52612 29.37005,0 53.23357,-23.86353 53.23357,-53.23358 0,-29.37005 -23.86352,-53.23357 -53.23357,-53.23357 z" baseline-shift="baseline" clip-rule="nonzero" color="#000" color-interpolation="sRGB" color-interpolation-filters="linearRGB" color-rendering="auto" direction="ltr" display="inline" enable-background="accumulate" font-family="sans-serif" font-size="medium" font-stretch="normal" font-style="normal" font-variant="normal" font-weight="normal" image-rendering="auto" letter-spacing="normal" opacity="1" overflow="visible" shape-rendering="auto" text-anchor="start" text-decoration="none" text-rendering="auto" visibility="visible" word-spacing="normal" writing-mode="lr-tb" style="line-height:normal;text-indent:0;text-align:start;text-decoration-line:none;text-decoration-style:solid;text-decoration-color:#000;text-transform:none;block-progression:tb;white-space:normal;isolation:auto;mix-blend-mode:normal;solid-color:#000;solid-opacity:1"/></g></svg>