<svg xmlns="http://www.w3.org/2000/svg" xmlns:svg="http://www.w3.org/2000/svg" id="svg5760" width="76.074" height="76.074" version="1.1" viewBox="0 0 71.319 71.319"><defs id="defs5762"><clipPath id="clipPath12124-3" clipPathUnits="userSpaceOnUse"><ellipse id="circle12126-7" cx="-494.575" cy="312.693" fill="#e59728" fill-opacity="1" stroke="none" rx="42.605" ry="47.479" transform="matrix(0.8096571,-0.58690322,0.468272,0.88358436,0,0)"/></clipPath></defs><metadata id="metadata5765"/><g id="layer1" transform="translate(679.65265,-1173.8454)"><g id="g12392" transform="translate(-377.21802,517.84762)"><g id="g10864" fill="#e59728" fill-opacity="1" clip-path="url(#clipPath12124-3)" transform="matrix(0.74683769,0.44514588,-0.39580056,0.61409702,147.17391,456.80737)"><g id="g10866" fill="#e59728" stroke="none" transform="translate(-192.33305,47.376155)"><path id="path10868" fill="#e48f2c" stroke="none" stroke-width="1" d="m -78.995148,455.629 50.713394,-5.2706 -65.202934,4.78271 z"/><path id="path10870" fill="#e49928" stroke="none" stroke-width="1" d="m -78.995148,455.629 28.979088,3.70236 21.734306,-8.97296 z"/><path id="path10872" fill="#e59b29" stroke="none" stroke-width="1" d="m -78.995148,455.629 14.48954,18.14026 14.489548,-14.4379 z"/><path id="path10874" fill="#e49529" stroke="none" stroke-width="1" d="m -50.01606,459.33136 28.97908,3.00763 -7.244774,-11.98059 z"/><path id="path10876" fill="#e49e2b" stroke="none" stroke-width="1" d="m -78.995148,455.629 7.244774,25.58755 7.244766,-7.44729 z"/><path id="path10878" fill="#e38e29" stroke="none" stroke-width="1" d="m -93.484688,455.14111 21.734314,26.07544 -7.244774,-25.58755 z"/><path id="path10880" fill="#e4962c" stroke="none" stroke-width="1" d="m -71.750374,481.21655 14.48954,7.56958 -7.244774,-15.01687 z"/><path id="path10882" fill="#e39f2e" stroke="none" stroke-width="1" d="m -57.260834,488.78613 7.244774,-29.45477 -14.489548,14.4379 z"/><path id="path10884" fill="#e39129" stroke="none" stroke-width="1" d="m -57.260834,488.78613 36.223854,-26.44714 -28.97908,-3.00763 z"/><path id="path10886" fill="#e29d28" stroke="none" stroke-width="1" d="m -57.260834,488.78613 43.468628,9.44757 -7.244774,-35.89471 z"/><path id="path10888" fill="#e5932a" stroke="none" stroke-width="1" d="M 0.6973345,507.29727 -21.03698,462.33899 -13.792206,498.2337 Z"/><path id="path10890" fill="#e5932a" stroke="none" stroke-width="1" d="m -115.219,509.53561 21.734312,-54.3945 -28.979092,51.60743 z"/><path id="path10892" fill="#e5982a" stroke="none" stroke-width="1" d="m -115.219,509.53561 43.468626,-28.31906 -21.734314,-26.07544 z"/><path id="path10894" fill="#e5992a" stroke="none" stroke-width="1" d="m -129.70856,535.66724 7.24478,-28.9187 -14.48954,23.91558 z"/><path id="path10896" fill="#e59829" stroke="none" stroke-width="1" d="m -129.70856,535.66724 14.48956,-26.13163 -7.24478,-2.78707 z"/><path id="path10898" fill="#e48e28" stroke="none" stroke-width="1" d="m -100.72946,538.91125 28.979086,-57.6947 -43.468626,28.31906 z"/><path id="path10900" fill="#e2a62d" stroke="none" stroke-width="1" d="m -86.239922,544.33649 14.489548,-63.11994 -28.979086,57.6947 z"/><path id="path10902" fill="#e4992c" stroke="none" stroke-width="1" d="m -129.70856,535.66724 28.9791,3.24401 -14.48954,-29.37564 z"/><path id="path10904" fill="#e2922c" stroke="none" stroke-width="1" d="m -86.239922,544.33649 28.979088,-55.55036 -14.48954,-7.56958 z"/><path id="path10906" fill="#e39d2a" stroke="none" stroke-width="1" d="m -42.771294,554.57153 28.979088,-56.33783 -43.468628,-9.44757 z"/><path id="path10908" fill="#e18429" stroke="none" stroke-width="1" d="m -86.239922,544.33649 43.468628,10.23504 -14.48954,-65.7854 z"/><path id="path10910" fill="#e5ae2d" stroke="none" stroke-width="1" d="M -42.771294,554.57153 0.6973345,507.29727 -13.792206,498.2337 Z"/><path id="path10912" fill="#e29c2a" stroke="none" stroke-width="1" d="M -35.52652,559.67303 0.6973345,507.29727 -42.771294,554.57153 Z"/><path id="path10914" fill="#e4a12c" stroke="none" stroke-width="1" d="m -129.70856,535.66724 21.73432,31.61224 7.24478,-28.36823 z"/><path id="path10916" fill="#e39428" stroke="none" stroke-width="1" d="m -107.97424,567.27948 21.734318,-22.94299 -14.489538,-5.42524 z"/><path id="path10918" fill="#e3a030" stroke="none" stroke-width="1" d="M -6.5474322,577.82184 0.6973345,507.29727 -35.52652,559.67303 Z"/><path id="path10920" fill="#e08f27" stroke="none" stroke-width="1" d="m -107.97424,567.27948 65.202946,-12.70795 -43.468628,-10.23504 z"/><path id="path10922" fill="#e1842a" stroke="none" stroke-width="1" d="m -107.97424,567.27948 72.44772,-7.60645 -7.244774,-5.1015 z"/><path id="path10924" fill="#e5922b" stroke="none" stroke-width="1" d="m -136.95332,530.66412 28.97908,36.61536 -21.73432,-31.61224 z"/><path id="path10926" fill="#e1a828" stroke="none" stroke-width="1" d="M -107.97424,567.27948 -6.5474322,577.82184 -35.52652,559.67303 Z"/><path id="path10928" fill="#e59c26" stroke="none" stroke-width="1" d="m -93.484688,455.14111 -43.468632,75.52301 14.48954,-23.91558 z"/></g><g id="g10930" fill="#e59728" stroke="none" transform="translate(-192.33305,47.376155)"><path id="path10932" fill="#e48f2c" stroke="none" stroke-width="1" d="m -78.995148,455.629 50.713394,-5.2706 -65.202934,4.78271 z"/><path id="path10934" fill="#e49928" stroke="none" stroke-width="1" d="m -78.995148,455.629 28.979088,3.70236 21.734306,-8.97296 z"/><path id="path10936" fill="#e59b29" stroke="none" stroke-width="1" d="m -78.995148,455.629 14.48954,18.14026 14.489548,-14.4379 z"/><path id="path10938" fill="#e49529" stroke="none" stroke-width="1" d="m -50.01606,459.33136 28.97908,3.00763 -7.244774,-11.98059 z"/><path id="path10940" fill="#e49e2b" stroke="none" stroke-width="1" d="m -78.995148,455.629 7.244774,25.58755 7.244766,-7.44729 z"/><path id="path10942" fill="#e38e29" stroke="none" stroke-width="1" d="m -93.484688,455.14111 21.734314,26.07544 -7.244774,-25.58755 z"/><path id="path10944" fill="#e4962c" stroke="none" stroke-width="1" d="m -71.750374,481.21655 14.48954,7.56958 -7.244774,-15.01687 z"/><path id="path10946" fill="#e39f2e" stroke="none" stroke-width="1" d="m -57.260834,488.78613 7.244774,-29.45477 -14.489548,14.4379 z"/><path id="path10948" fill="#e39129" stroke="none" stroke-width="1" d="m -57.260834,488.78613 36.223854,-26.44714 -28.97908,-3.00763 z"/><path id="path10950" fill="#e29d28" stroke="none" stroke-width="1" d="m -57.260834,488.78613 43.468628,9.44757 -7.244774,-35.89471 z"/><path id="path10952" fill="#e5932a" stroke="none" stroke-width="1" d="M 0.6973345,507.29727 -21.03698,462.33899 -13.792206,498.2337 Z"/><path id="path10954" fill="#e5932a" stroke="none" stroke-width="1" d="m -115.219,509.53561 21.734312,-54.3945 -28.979092,51.60743 z"/><path id="path10956" fill="#e5982a" stroke="none" stroke-width="1" d="m -115.219,509.53561 43.468626,-28.31906 -21.734314,-26.07544 z"/><path id="path10958" fill="#e5992a" stroke="none" stroke-width="1" d="m -129.70856,535.66724 7.24478,-28.9187 -14.48954,23.91558 z"/><path id="path10960" fill="#e59829" stroke="none" stroke-width="1" d="m -129.70856,535.66724 14.48956,-26.13163 -7.24478,-2.78707 z"/><path id="path10962" fill="#e48e28" stroke="none" stroke-width="1" d="m -100.72946,538.91125 28.979086,-57.6947 -43.468626,28.31906 z"/><path id="path10964" fill="#e2a62d" stroke="none" stroke-width="1" d="m -86.239922,544.33649 14.489548,-63.11994 -28.979086,57.6947 z"/><path id="path10966" fill="#e4992c" stroke="none" stroke-width="1" d="m -129.70856,535.66724 28.9791,3.24401 -14.48954,-29.37564 z"/><path id="path10968" fill="#e2922c" stroke="none" stroke-width="1" d="m -86.239922,544.33649 28.979088,-55.55036 -14.48954,-7.56958 z"/><path id="path10970" fill="#e39d2a" stroke="none" stroke-width="1" d="m -42.771294,554.57153 28.979088,-56.33783 -43.468628,-9.44757 z"/><path id="path10972" fill="#e18429" stroke="none" stroke-width="1" d="m -86.239922,544.33649 43.468628,10.23504 -14.48954,-65.7854 z"/><path id="path10974" fill="#e5ae2d" stroke="none" stroke-width="1" d="M -42.771294,554.57153 0.6973345,507.29727 -13.792206,498.2337 Z"/><path id="path10976" fill="#e29c2a" stroke="none" stroke-width="1" d="M -35.52652,559.67303 0.6973345,507.29727 -42.771294,554.57153 Z"/><path id="path10978" fill="#e4a12c" stroke="none" stroke-width="1" d="m -129.70856,535.66724 21.73432,31.61224 7.24478,-28.36823 z"/><path id="path10980" fill="#e39428" stroke="none" stroke-width="1" d="m -107.97424,567.27948 21.734318,-22.94299 -14.489538,-5.42524 z"/><path id="path10982" fill="#e3a030" stroke="none" stroke-width="1" d="M -6.5474322,577.82184 0.6973345,507.29727 -35.52652,559.67303 Z"/><path id="path10984" fill="#e08f27" stroke="none" stroke-width="1" d="m -107.97424,567.27948 65.202946,-12.70795 -43.468628,-10.23504 z"/><path id="path10986" fill="#e1842a" stroke="none" stroke-width="1" d="m -107.97424,567.27948 72.44772,-7.60645 -7.244774,-5.1015 z"/><path id="path10988" fill="#e5922b" stroke="none" stroke-width="1" d="m -136.95332,530.66412 28.97908,36.61536 -21.73432,-31.61224 z"/><path id="path10990" fill="#e1a828" stroke="none" stroke-width="1" d="M -107.97424,567.27948 -6.5474322,577.82184 -35.52652,559.67303 Z"/><path id="path10992" fill="#e59c26" stroke="none" stroke-width="1" d="m -93.484688,455.14111 -43.468632,75.52301 14.48954,-23.91558 z"/></g></g><g id="g11002" fill="#fff" transform="matrix(0.24013272,0,0,0.24013272,-861.23021,347.50396)"><rect id="rect11004" width="42.426" height="169.706" x="1357.967" y="-2560.38" fill="#fff" fill-opacity="1" stroke="none" rx="14.142" ry="14.142" transform="rotate(90)"/><rect id="rect11006" width="42.426" height="169.706" x="1411.967" y="-2560.38" fill="#fff" fill-opacity="1" stroke="none" rx="14.142" ry="14.142" transform="rotate(90)"/><rect id="rect11008" width="42.426" height="169.706" x="1465.967" y="-2560.38" fill="#fff" fill-opacity="1" stroke="none" rx="14.142" ry="14.142" transform="rotate(90)"/></g></g></g></svg>